# xmcd
# 
# Track frame offsets:
#     150
#     19467
#     33555
#     48770
#     66955
#     84405
#     98125
#     113165
#     125290
#     136995
#     155715
# 
# Disc length: 2234
# 
# Revision: 2
# Processed by: cddbd v1.5.2PL0 Copyright (c) Steve Scherf et al.
# Submitted via: fre:ac v1.0.17
# 
DISCID=9008b80b
DTITLE=Leonard Cohen - New Skin for the Old Ceremony
DYEAR=1974
DGENRE=Folk
TTITLE0=Is this what You Wanted
TTITLE1=Chelsea Hotel #2
TTITLE2=Lover Lover Lover
TTITLE3=Field Commander Cohen
TTITLE4=Why Don't You Try
TTITLE5=There is a War
TTITLE6=A Singer Must Die
TTITLE7=I Tried to Leave You
TTITLE8=Who by Fire
TTITLE9=Take this Longing
TTITLE10=Leaving Green Sleeves
EXTD=
EXTT0=
EXTT1=
EXTT2=
EXTT3=
EXTT4=
EXTT5=
EXTT6=
EXTT7=
EXTT8=
EXTT9=
EXTT10=
PLAYORDER=
